<svg xmlns="http://www.w3.org/2000/svg" viewBox="0 0 360 360" role="img" aria-labelledby="title desc">
  <title id="title">IRONMAN Laundry payment QR code</title>
  <desc id="desc">Static QR payment image for IRONMAN Laundry customer payments.</desc>
  <rect width="360" height="360" fill="#ffffff"/>
  <rect x="18" y="18" width="324" height="324" rx="18" fill="#ffffff" stroke="#111827" stroke-width="8"/>
  <g fill="#111827">
    <rect x="42" y="42" width="78" height="78"/>
    <rect x="60" y="60" width="42" height="42" fill="#ffffff"/>
    <rect x="72" y="72" width="18" height="18"/>
    <rect x="240" y="42" width="78" height="78"/>
    <rect x="258" y="60" width="42" height="42" fill="#ffffff"/>
    <rect x="270" y="72" width="18" height="18"/>
    <rect x="42" y="240" width="78" height="78"/>
    <rect x="60" y="258" width="42" height="42" fill="#ffffff"/>
    <rect x="72" y="270" width="18" height="18"/>
    <rect x="144" y="42" width="18" height="18"/>
    <rect x="180" y="42" width="18" height="18"/>
    <rect x="204" y="60" width="18" height="18"/>
    <rect x="144" y="84" width="36" height="18"/>
    <rect x="198" y="96" width="24" height="24"/>
    <rect x="132" y="132" width="18" height="36"/>
    <rect x="168" y="132" width="18" height="18"/>
    <rect x="204" y="132" width="54" height="18"/>
    <rect x="276" y="132" width="18" height="36"/>
    <rect x="42" y="144" width="18" height="54"/>
    <rect x="78" y="144" width="42" height="18"/>
    <rect x="144" y="180" width="18" height="18"/>
    <rect x="180" y="168" width="54" height="18"/>
    <rect x="252" y="180" width="66" height="18"/>
    <rect x="132" y="216" width="54" height="18"/>
    <rect x="204" y="216" width="18" height="54"/>
    <rect x="240" y="216" width="18" height="18"/>
    <rect x="288" y="216" width="30" height="18"/>
    <rect x="144" y="252" width="18" height="66"/>
    <rect x="180" y="252" width="18" height="18"/>
    <rect x="228" y="252" width="42" height="18"/>
    <rect x="288" y="252" width="30" height="66"/>
    <rect x="168" y="288" width="54" height="18"/>
    <rect x="240" y="294" width="18" height="24"/>
  </g>
  <rect x="128" y="151" width="104" height="58" rx="14" fill="#ffffff" stroke="#dc2626" stroke-width="5"/>
  <text x="180" y="174" text-anchor="middle" font-family="Arial, Helvetica, sans-serif" font-size="13" font-weight="700" fill="#111827">IRONMAN</text>
  <text x="180" y="193" text-anchor="middle" font-family="Arial, Helvetica, sans-serif" font-size="12" font-weight="700" fill="#dc2626">PAY</text>
</svg>
